<svg width="800" height="560" viewBox="0 0 800 560" fill="none" xmlns="http://www.w3.org/2000/svg">
  <rect width="800" height="560" rx="44" fill="url(#paint0_linear)"/>
  <circle cx="677" cy="118" r="96" fill="white" fill-opacity="0.12"/>
  <circle cx="150" cy="458" r="116" fill="white" fill-opacity="0.1"/>
  <rect x="96" y="110" width="608" height="340" rx="34" fill="white" fill-opacity="0.14"/>
  <rect x="132" y="150" width="244" height="16" rx="8" fill="white" fill-opacity="0.85"/>
  <rect x="132" y="188" width="188" height="14" rx="7" fill="white" fill-opacity="0.42"/>
  <rect x="132" y="246" width="540" height="112" rx="26" fill="white" fill-opacity="0.16"/>
  <rect x="132" y="388" width="182" height="28" rx="14" fill="#F9FAFB"/>
  <path d="M476 176H627C644.673 176 659 190.327 659 208V296C659 313.673 644.673 328 627 328H476C458.327 328 444 313.673 444 296V208C444 190.327 458.327 176 476 176Z" fill="#FBBF24" fill-opacity="0.85"/>
  <path d="M492 244H611" stroke="#0F172A" stroke-width="16" stroke-linecap="round"/>
  <path d="M492 276H566" stroke="#0F172A" stroke-width="16" stroke-linecap="round" stroke-opacity="0.7"/>
  <defs>
    <linearGradient id="paint0_linear" x1="55" y1="48" x2="715" y2="523" gradientUnits="userSpaceOnUse">
      <stop stop-color="#2146D0"/>
      <stop offset="0.5" stop-color="#4968F0"/>
      <stop offset="1" stop-color="#7C3AED"/>
    </linearGradient>
  </defs>
</svg>
