<svg width="800" height="560" viewBox="0 0 800 560" fill="none" xmlns="http://www.w3.org/2000/svg">
  <rect width="800" height="560" rx="44" fill="url(#paint0_linear)"/>
  <circle cx="138" cy="114" r="92" fill="white" fill-opacity="0.1"/>
  <circle cx="658" cy="443" r="108" fill="white" fill-opacity="0.1"/>
  <rect x="108" y="102" width="584" height="356" rx="38" fill="white" fill-opacity="0.14"/>
  <rect x="156" y="150" width="296" height="180" rx="28" fill="#F8FAFC"/>
  <rect x="474" y="150" width="170" height="180" rx="28" fill="#0F172A" fill-opacity="0.92"/>
  <rect x="504" y="194" width="110" height="18" rx="9" fill="#F8FAFC"/>
  <rect x="504" y="232" width="86" height="14" rx="7" fill="#CBD5E1"/>
  <rect x="504" y="270" width="68" height="14" rx="7" fill="#CBD5E1"/>
  <rect x="192" y="192" width="226" height="18" rx="9" fill="#1D4ED8"/>
  <rect x="192" y="232" width="178" height="14" rx="7" fill="#94A3B8"/>
  <rect x="192" y="264" width="210" height="14" rx="7" fill="#94A3B8"/>
  <rect x="156" y="360" width="488" height="40" rx="20" fill="#F8FAFC"/>
  <defs>
    <linearGradient id="paint0_linear" x1="88" y1="40" x2="742" y2="522" gradientUnits="userSpaceOnUse">
      <stop stop-color="#1E40AF"/>
      <stop offset="0.48" stop-color="#4338CA"/>
      <stop offset="1" stop-color="#7C3AED"/>
    </linearGradient>
  </defs>
</svg>
